<svg xmlns="http://www.w3.org/2000/svg"  version="1.1" x="0px" y="0px" viewBox="0 0 512 640" style="enable-background:new 0 0 512 512;" xml:space="preserve"><style type="text/css">
	.st0{fill:none;stroke:#000000;stroke-width:18;stroke-miterlimit:10;}
	.st1{stroke:#000000;stroke-width:10;stroke-miterlimit:10;}
	.st2{stroke:#000000;stroke-width:18;stroke-miterlimit:10;}
	.st3{fill:none;stroke:#000000;stroke-width:25;stroke-miterlimit:10;}
	.st4{stroke:#000000;stroke-miterlimit:10;}
	.st5{fill:none;stroke:#000000;stroke-width:50;stroke-linecap:round;stroke-linejoin:round;}
	.st6{stroke:#000000;stroke-width:18;stroke-linecap:round;stroke-linejoin:round;}
	.st7{fill:none;stroke:#000000;stroke-width:18;stroke-linecap:round;stroke-linejoin:round;}
</style><g><g><path d="M244.4,129.7c26.4,0,47-20.6,47-47s-20.6-47-47-47c-26.4,0-47,20.6-47,47S218,129.7,244.4,129.7z"/><path class="st5" d="M249.6,315.5c7.4,25.6,14.8,51.2,22.2,76.8c6.4,22.1,12.7,44.1,19.1,66.2c1.7,5.9,3.4,11.9,5.2,17.8     M239.2,315.6c-8.3,25.2-16.6,50.4-24.9,75.6c-7.2,21.9-14.4,43.9-21.6,65.8c-1.9,5.9-3.9,11.8-5.8,17.6 M254.1,151.5    c18.2,14.6,31.4,42.5,54.7,43.9c17.8,1.1,40.6-9.7,46.5-26.6c1.9-5.3-2.5-11.1-3.8-16.6 M234.5,151.4    c-18.3,15.4-31,44.3-54.9,46.1c-17,1.3-39.5-8.1-44.9-24.3c-1.8-5.5,3.1-11.1,4.6-16.7 M244.4,130.3c0,7.7,0,15.4,0,23.1    c0,38.5,0,77.1,0,115.6c0,15.5,0,31.1,0,46.6"/></g></g><text x="0" y="527" fill="#000000" font-size="5px" font-weight="bold" font-family="'Helvetica Neue', Helvetica, Arial-Unicode, Arial, Sans-serif">Created by Владислав Северин</text><text x="0" y="532" fill="#000000" font-size="5px" font-weight="bold" font-family="'Helvetica Neue', Helvetica, Arial-Unicode, Arial, Sans-serif">from the Noun Project</text></svg>